<svg xmlns="http://www.w3.org/2000/svg" x="0px" y="0px" width="100" height="100" viewBox="0 0 48 48">
<linearGradient id="wfmdzDrdTRP7JuCc--QOOa_cVUr1WGmhrbq_gr1" x1="-4.159" x2="67.384" y1="7.742" y2="49.048" gradientUnits="userSpaceOnUse"><stop offset="0" stop-color="#262626" stop-opacity="0"></stop><stop offset="1" stop-color="#262626" stop-opacity=".8"></stop></linearGradient><path fill="url(#wfmdzDrdTRP7JuCc--QOOa_cVUr1WGmhrbq_gr1)" d="M6,12c0-3.314,2.686-6,6-6h30v30c0,3.314-2.686,6-6,6H6V12z"></path><linearGradient id="wfmdzDrdTRP7JuCc--QOOb_cVUr1WGmhrbq_gr2" x1="9.18" x2="46.833" y1="15.444" y2="37.183" gradientUnits="userSpaceOnUse"><stop offset="0" stop-color="#262626" stop-opacity="0"></stop><stop offset="1" stop-color="#262626" stop-opacity=".8"></stop></linearGradient><polygon fill="url(#wfmdzDrdTRP7JuCc--QOOb_cVUr1WGmhrbq_gr2)" points="26,42 22,42 22,36.24 27.546,30 22,30 22,22 11.546,22 22,10.24 22,6 26,6 26,11.76 20.454,18 26,18 26,26 36.454,26 26,37.76"></polygon>
</svg>